<svg width="30" height="31" viewBox="0 0 30 31" fill="none" xmlns="http://www.w3.org/2000/svg">
<path d="M27.6794 17.7793C27.6794 24.641 21.9011 30.2501 14.7147 30.2501C7.52832 30.2501 1.75 24.641 1.75 17.7793C1.75 10.9176 7.52832 5.30859 14.7147 5.30859C21.9011 5.30859 27.6794 10.9176 27.6794 17.7793Z" stroke="#0F252A" stroke-width="1.5"/>
<path d="M10.2246 5.57535C9.57293 3.79789 7.81444 2.52441 5.74739 2.52441C3.12548 2.52441 1 4.57334 1 7.10082C1 8.87186 2.0436 10.4079 3.57034 11.1687" stroke="#0F252A" stroke-width="1.5"/>
<path d="M14.1872 5.06792V1M14.1872 1H11.0223M14.1872 1H17.3521M14.1872 11.6783V18.2887H22.627M5.21991 26.933L1.5275 29.9839M27.3744 29.9839L23.682 26.933" stroke="#0F252A" stroke-width="1.5"/>
<path d="M19.2047 5.57535C19.8565 3.79789 21.615 2.52441 23.682 2.52441C26.3039 2.52441 28.4294 4.57334 28.4294 7.10082C28.4294 8.68752 27.5917 10.0856 26.3194 10.9066" stroke="#0F252A" stroke-width="1.5"/>
</svg>
